<?xml version="1.0" encoding="UTF-8" standalone="no"?><!DOCTYPE svg PUBLIC "-//W3C//DTD SVG 1.1//EN" "http://www.w3.org/Graphics/SVG/1.1/DTD/svg11.dtd"><svg width="100%" height="100%" viewBox="0 0 2000 2000" version="1.1" xmlns="http://www.w3.org/2000/svg" xmlns:xlink="http://www.w3.org/1999/xlink" xml:space="preserve" xmlns:serif="http://www.serif.com/" style="fill-rule:evenodd;clip-rule:evenodd;stroke-linejoin:round;stroke-miterlimit:1.5;"><g><g><path d="M629.887,788.239c-21.491,-3.621 -43.269,-7.084 -64.412,-9.73c-2.407,-0.301 -35.068,-6.571 -63.847,-7.353c-0.069,-0.002 -13.944,0.044 -26.553,2.685c-13.495,2.827 -18.245,6.957 -20.632,8.655c-83.39,59.333 -127.678,47.813 -203.23,45.652c-32.164,-0.92 -52.231,-7.636 -62.966,-11.906c-58.433,-23.244 -80.514,-74.632 -70.716,-116.307c0.881,-3.746 2.574,-8.083 2.843,-8.77c5.269,-13.495 14.107,-25.013 25.88,-33.063c18.967,-12.969 38.833,-12.394 44.614,-12.264l0.014,18.245c-4.282,0.215 -32.288,0.798 -45.306,27.867c-2.747,5.713 -3.927,11.111 -4.746,15.568c-5.652,30.751 13.126,72.889 69.288,88.15c6.772,1.84 20.143,5.415 41.924,6.159c73.71,2.517 109.981,13.047 182.328,-36.192c7.946,-5.408 10.297,-7.611 17.237,-10.724c15.223,-6.829 34.099,-8.437 48.654,-8.798c3.761,-0.093 22.743,-2.213 67.175,1.132c0.183,0.014 0.195,-0.13 11.462,1.388c22.903,3.086 47.18,7.16 70.976,11.25c40.195,-38.681 119.849,-34.547 154.714,-13.904c24.789,14.677 23.518,35.195 16.345,45.987c-10.78,16.22 -36.154,18.19 -72.442,14.69c-25.043,-2.415 -54.948,-7.475 -86.559,-12.924c-19.724,31.569 -33.435,81.841 -35.299,87.762c-14.745,46.834 -23.385,90.772 -27.353,112.513c-0.01,0.057 -4.156,27.51 -6.79,61.328c-4.808,61.721 -1.815,104.668 4.66,128.968c0.896,-2.522 1.751,-4.924 2.532,-7.014c11.819,-31.621 28.057,-75.095 53.021,-109.671c4.388,-10.876 9.984,-21.415 16.685,-31.346c0.809,-9.484 7.671,-15.503 15.275,-14.478c3.315,0.447 6.691,2.397 8.741,5.589c35.396,-22.805 71.308,-18.152 100.946,-4.763c39.452,17.822 58.853,49.07 64.841,81.606c1.527,0.297 3.014,0.579 4.444,0.841c25.46,4.663 34.816,5.831 37.862,6.211c28.25,3.525 62.913,4.471 84.464,4.376l-0.275,29.634c-23.703,-0.734 -67.616,-3.39 -100.307,-9.928c-10.836,-2.167 -16.514,-3.403 -24.134,-5.058c-0.389,18.113 -4.426,35.616 -10.947,50.379c-6.703,15.175 -16.439,29.126 -36.516,41.615c-42.989,26.742 -111.265,26.807 -150.291,-26.899c-10.535,-14.498 -17.136,-30.81 -20.192,-47.892c-7.918,19.457 -13.499,36.295 -16.485,44.124c-9.072,23.783 -13.346,33.967 -22.358,37.867c-4.882,2.113 -12.592,2.534 -18.884,-4.038c-9.124,-9.529 -24.392,-33.705 -22.115,-115.632c1.647,-59.235 11.791,-115.433 12.303,-119.442c2.965,-23.244 9.412,-68.422 21.925,-117.155c0.011,-0.043 5.944,-21.949 14.663,-45.316c0.839,-2.249 7.73,-21.258 17.538,-39.675Zm65.861,-20.53c38.892,6.418 72.636,10.947 91.474,8.473c0.43,-0.057 2.758,-0.362 4.964,-0.937c-4.712,-3.894 -16.403,-9.6 -35.802,-12.328c-20.204,-2.841 -42.414,-1.502 -60.636,4.792Zm137.534,330.985c-7.66,-23.845 -25.575,-45.64 -59.675,-56.448c-22.289,-7.064 -45.126,-6.404 -67.791,10.192c15.016,11.116 47.294,27.118 115.773,43.534c2.783,0.667 6.906,1.634 11.693,2.722Zm-165.609,-1.355c-8.461,35.73 -1.391,72.551 25.406,97.934c32.911,31.174 82.515,27.115 112.839,6.403c5.537,-3.782 9.793,-8.215 10.562,-9.016c1.703,-1.773 11.809,-11.628 17.748,-34.208c2.659,-10.108 4.094,-21.516 3.633,-33.21c-80.922,-18 -127.035,-37.453 -149.925,-56.201c-6.794,7.712 -13.554,17.07 -20.263,28.299Z" style="fill:#3e3e3e;"/><path d="M1299.608,1009.392c-22.665,-3.786 -43.346,-7.264 -59.86,-9.187c-53.696,-6.253 -64.221,1.909 -70.537,12.335c-10.266,16.946 -13.36,50.614 -47.091,91.438c-1.045,1.265 -7.383,9.595 -17.833,20.255c-1.882,1.92 -13.457,14.697 -43.028,19.674c-6.914,1.164 -12,1.329 -13.049,1.363l-0.037,-28.83c9.361,0.201 28.545,-2.728 37.212,-10.626c4.656,-4.244 13.394,-12.878 18.425,-19.177c35.696,-44.698 30.002,-78.636 52.911,-99.634c13.06,-11.971 33.124,-17.295 70.942,-15.292c26.431,1.4 56.819,6.159 92.12,11.015c9.681,-9.654 28.192,-23.796 60.938,-30.248c45.587,-8.981 100.974,1.307 108.688,33.982c2.935,12.433 -1.209,27.741 -22.895,34.443c-11.555,3.571 -27.842,4.747 -49.393,4.009c-0.055,-0.002 -10.865,-0.457 -29.646,-2.538c-18.894,-2.094 -38.2,-4.922 -56.887,-7.895c-36.283,51.069 -60.635,168.431 -61.16,255.299c-0.068,11.266 0.086,38.279 5.258,60.71c0.861,3.733 1.763,6.785 2.64,9.271c10.975,-11.785 30.892,-37.296 59.518,-80.487c10.416,-15.715 20.591,-31.666 30.262,-47.387c7.881,-56.545 21.22,-114.95 41.03,-147.105c4.854,-7.879 19.361,-30.037 42.938,-27.944c8.782,0.78 17.578,7.349 17.207,22.349c-0.178,7.184 -1.807,28.75 -41.414,102.939c-11.316,21.196 -24.805,44.851 -38.981,68.454c-3.491,26.138 -5.849,51.992 -6.981,74.872c-0.534,10.794 -0.75,20.147 -0.724,28.031c7.988,-23.815 16.775,-54.143 29.065,-78.782c0.786,-1.575 1.851,-4.737 4.64,-10.618c7.33,-15.46 19.817,-34.915 41.914,-40.847c0.154,-0.041 6.407,-1.397 14.909,-0.311c1.834,0.234 9.89,1.388 18.038,5.114c27.588,12.614 27.306,40.376 26.647,52.014c-1.463,25.852 -12.103,55.842 -12.701,81.749c-0.007,0.291 0.172,10.892 3.934,21.102c3.959,10.744 9.052,11.52 12.79,11.528c6.769,0.015 15.958,-3.56 27.104,-9.447c-9.448,-44.953 12.639,-104.005 58.524,-116.492c36.549,-9.946 74.357,26.798 58.806,59.915c-6.999,14.905 -21.708,22.207 -26.614,25.012c-25.185,14.397 -46.519,28.104 -64.767,38.697c2.621,5.939 6.196,11.068 10.766,14.969c9.259,7.903 20,7.854 23.049,8.107c99.347,8.226 186.189,152.773 160.814,252.004c-9.643,37.711 -31.917,55.309 -37.897,60.644c-31.692,28.271 -46.309,55.07 -50.851,68.152l-23.622,-8.056c0.151,-0.433 11.825,-38.208 59.985,-80.113c6.24,-5.43 36.132,-29.658 32.315,-88.559c-5.3,-81.796 -72.917,-175.982 -143.852,-181.226c-4.112,-0.304 -33.8,-1.137 -49.833,-33.139c-0.318,-0.634 -0.627,-1.274 -0.927,-1.921c-18.896,9.223 -33.883,12.748 -46.234,6.546c-12.971,-6.513 -17.571,-22.315 -19.561,-33.71c-1.137,-6.508 -1.122,-11.046 -1.359,-14.846c-2.068,-33.233 9.96,-74.755 2.741,-95.257c-1.994,-5.664 -5.65,-10.802 -18.513,-12.004c-4.2,-0.392 -7.141,0.611 -7.265,0.631c-1.216,0.193 -8.651,-0.612 -19.953,10.882c-6.382,6.49 -11.476,14.347 -13.875,18.145c-0.009,0.015 -2.86,5.522 -6.661,14.8c-13.123,32.03 -22.5,71.741 -32.624,91.669c-0.858,1.689 -5.133,10.703 -14.091,10.588c-2.315,-0.03 -8.653,-0.824 -12.267,-8.968c-1.073,-2.417 -5.566,-11.847 -4.433,-57.101c0.293,-11.707 0.966,-25.057 2.042,-39.417c-28.231,43.986 -55.483,81.665 -70.69,94.31c-2.427,2.018 -11.57,9.787 -22.093,5.877c-2.598,-0.965 -5.488,-2.58 -9.652,-7.944c-12.65,-16.299 -16.015,-44.001 -17.266,-57.212c-7.687,-81.153 14.621,-226.867 58.95,-300.575Zm63.134,-21.206c1.298,0.147 2.601,0.293 3.91,0.438c31.73,3.502 45.913,3.749 53.685,4.11c21.428,0.994 31.773,-0.563 36.661,-1.913c-10.562,-9.388 -44.403,-15.839 -77.48,-8.028c-6.48,1.53 -12.04,3.403 -16.777,5.393Zm96.302,5.326c-0.002,0 -0.005,0 -0.007,0c-0.033,0.001 -0.009,0.058 0.007,0.107c0.002,-0.031 0.003,-0.066 0,-0.107Zm-56.883,158.398c21.327,-38.701 36.404,-71.2 39.993,-88.244c-3.072,1.796 -7.067,5.366 -11.761,12.377c-11.109,16.592 -20.593,44.014 -28.231,75.868Zm46.605,-89.928c-0,0.001 -0,0.001 -0,0.002c-0.002,0.025 0.037,0.016 0.075,0.007c-0.023,-0.003 -0.048,-0.006 -0.075,-0.01Zm118.726,290.862c17.777,-10.9 38.609,-24.655 61.38,-38.17c4.569,-2.712 22.179,-12.316 16.104,-28.029c-4.341,-11.227 -20.085,-20.828 -34.09,-16.875c-31.292,8.832 -47.083,50.23 -43.394,83.074Z" style="fill:#d83339;"/><path d="M985.814,1130.472l62.396,0.384" style="fill:#302d2e;stroke:#e58d1f;stroke-width:20.83px;"/></g></g><g><path d="M1047.062,1111.933l-33.518,25.321c-0.913,0.69 -2.228,0.698 -3.26,0.021c-1.032,-0.677 -1.548,-1.887 -1.278,-2.999l9.886,-40.827l93.897,-143.101l-4.962,-3.256c-3.548,-2.328 -4.69,-6.858 -2.55,-10.118l27.944,-42.588l50.941,33.425l-27.944,42.588c-2.139,3.26 -6.75,4.016 -10.297,1.688l-4.962,-3.256l-93.897,143.101Z" style="fill:#90939c;"/><path d="M1218.844,926.199c0,0 1.871,3.701 0.471,5.835l-6.109,9.31c-1.4,2.133 -4.416,2.628 -6.737,1.105l-95.555,-62.699c-2.321,-1.523 -3.068,-4.487 -1.669,-6.62l6.109,-9.31c1.4,-2.133 5.54,-1.89 5.54,-1.89l91.122,-121.789l-3.158,-2.072c-2.071,-1.359 -2.738,-4.004 -1.489,-5.907l6.655,-10.142c1.249,-1.903 3.94,-2.345 6.011,-0.986l88.593,58.131c2.071,1.359 2.738,4.004 1.489,5.907l-6.655,10.142c-1.249,1.903 -3.94,2.345 -6.011,0.986l-3.158,-2.072l-75.45,132.072Z" style="fill:#3e3e3e;"/><path d="M1878.265,301.826l-2.327,-0.281c1.816,-21.902 2.186,-44.126 -7.635,-51.785c-11.346,-8.848 -36.191,0.479 -69.353,-2.953c-35.546,-3.679 -78.769,-52.725 -119.263,-59.108c-23.092,-3.64 -37.588,9.196 -47.974,21.793l-18.775,-16.508c13.878,-14.629 39.951,-36.674 80.121,-22.509c41.239,14.541 78.131,60.229 107.389,65.42c34.926,6.197 63.536,-4.452 75.233,13.201c7.581,11.441 5.624,32.505 2.584,52.73Z" style="fill:#3e3e3e;"/><path d="M1223.219,710.803c-1.543,2.225 -2.122,4.979 -1.606,7.638c0.516,2.658 2.085,4.995 4.349,6.481c17.884,11.735 58.858,38.62 76.742,50.355c2.264,1.486 5.032,1.994 7.676,1.409c2.644,-0.584 4.94,-2.212 6.367,-4.513c38.592,-62.237 271.491,-437.83 328.548,-529.845c7.016,-11.314 3.735,-26.158 -7.396,-33.462c-8.17,-5.361 -17.599,-11.548 -25.768,-16.908c-11.131,-7.303 -26.054,-4.404 -33.641,6.536c-61.697,88.969 -313.541,452.133 -355.272,512.31Z" style="fill:#49c8f4;"/><path d="M970.031,823.038c-0.025,-0.207 -3.267,-18.182 9.3,-33.605c13.956,-17.129 34.58,-15.441 37.636,-15.302c10.052,0.457 36.597,3 49.381,31.674c8.625,19.345 6.795,44.248 6.868,52.276c0.18,19.81 -9.287,34.547 -12.178,39.17c-3.852,6.16 -6.479,9.441 -10.856,15.749c-1.731,2.495 -9.878,12.553 -13.467,25.533c-0.372,1.346 -1.658,5.551 -2.254,12.024c-0.394,4.277 -0.577,12.172 3.631,24.664c3.928,11.662 10.969,25.54 12.714,40.239c1.01,8.508 0.443,17.169 -3.77,29.282c-8.872,25.505 -22.989,27.222 -28.224,38.383c-2.287,4.875 -2.732,9.642 -3.271,18.715c-1.759,29.611 4.212,33.549 4.229,33.564c-0.296,-0.177 -7.233,-3.665 -10.787,-35.711c-1.419,-12.789 -1.037,-21.269 6.594,-31.468c6.175,-8.253 13.819,-13.884 15.483,-35.24c1.222,-15.677 -8.071,-26.826 -16.216,-41.742c-5.763,-10.553 -9.579,-19.735 -11.302,-31.246c-3.949,-26.391 6.841,-46.172 9.78,-51.472c4.284,-7.727 9.528,-14.668 10.978,-16.499c7.612,-9.616 13.411,-16.103 17.136,-23.755c3.169,-6.51 3.362,-11.612 3.894,-15.541c1.619,-11.949 3.833,-24.765 1.193,-37.281c-1.976,-9.369 -7.326,-23.012 -31.202,-28.41c-3.664,-0.828 -20.034,-4.957 -33.7,8.972c-5.588,5.696 -8.193,12.389 -8.217,12.445c-2.972,6.996 -3.25,12.88 -3.373,14.581Z" style="fill:#e5e4e0;"/></g><g><g><path d="M455.283,1407.725l84.701,255.857l-7.816,-349.449l135.518,0l115.424,349.468l-5.528,-255.876l-24.896,-0l-16.503,-93.592l162.426,0l16.503,93.592l-37.657,0l9.309,478.994l-131.163,0l-118.142,-352.75l6.257,352.75l-131.15,0l-159.61,-478.994l-36.422,-0l-16.503,-93.592l162.426,0l16.503,93.592l-23.678,0Z" style="fill:#d83339;"/><path d="M1122.133,1793.127l45.652,-0l16.503,93.592l-194.031,0l-16.503,-93.592l44.247,0l-36.996,-209.818l-44.247,-0l-16.503,-93.592l148.379,-0l53.499,303.41Zm-124.311,-432.64c15.402,0 29.538,5.396 42.178,16.764c12.1,10.883 19.348,23.949 22.009,39.046c3.088,17.512 -0.877,32.023 -10.605,43.833c-9.863,11.975 -23.422,18.531 -41.177,18.531c-15.569,0 -29.571,-5.14 -41.923,-15.64c-12.233,-10.4 -19.649,-23.345 -22.368,-38.765c-3.025,-17.155 0.764,-31.82 10.552,-44.188c10.192,-12.878 23.887,-19.581 41.335,-19.581Z" style="fill:#d83339;"/><path d="M1328.935,1489.717c24.552,0 43.806,6.778 58.219,18.896c14.396,12.105 24.399,29.912 28.668,54.121l15.764,89.404l-103.43,-0l-9.039,-51.261l-55.972,39.996l26.846,152.254l34.415,-0l16.503,93.592l-182.092,0l-16.503,-93.592l44.247,0l-37.12,-210.52l-44.247,-0l-16.503,-93.592l147.677,-0l7.975,45.226l47.366,-33.331l0.008,-0.006c10.342,-7.264 22.69,-11.187 37.218,-11.187Z" style="fill:#d83339;"/><path d="M1373.285,1585.442c-5.601,-31.764 0.395,-55.229 14.118,-71.111c13.532,-15.661 35.944,-25.316 68.531,-25.316l118.695,0c29.097,0 50.91,6.641 65.963,17.923c15.51,11.625 27.443,32.319 32.945,63.522l14.033,79.584l-177.875,126.421l2.938,16.662l98.141,-0l-7.183,-40.736l102.025,-0l9.903,56.161c3.642,20.657 -0.142,38.285 -10.27,53.09c-10.273,15.016 -29.413,25.077 -59.445,25.077l-143.979,0c-27.277,0 -47.625,-7.884 -61.766,-21.522c-14.043,-13.545 -22.698,-29.785 -26.03,-48.686l-40.744,-231.069Zm117.582,84.242l86.627,-61.315l-4.419,-25.06l-97.439,-0l15.23,86.375Z" style="fill:#d83339;"/></g><circle cx="1004.342" cy="1419.868" r="32.967" style="fill:#fff;"/><g><path d="M941.81,1421.498c-0.015,-0.555 -0.022,-1.111 -0.022,-1.67c0,-1.001 2.091,-16.092 2.138,-17.082l-22.259,-7.985l-31.876,-58.829l-46.028,1.663l-5.584,23.717l-2.131,-28.908l-20.502,-9.994l-67.969,15.89l67.169,-25.64l35.684,15.959l51.416,-0l40.237,49.309l12.032,3.715c0,0 0.729,-0.041 0.884,-0.24c11.447,-14.666 29.289,-24.103 49.318,-24.103c34.511,0 62.529,28.018 62.529,62.529c0,26.583 -16.624,49.314 -40.035,58.355l13.045,15.806l1.9,35.626l16.799,33.755l-21.151,37.467l46.713,52.266l-57.658,-49.767l19.185,-38.21l-0.381,-9.88l-16.345,6.075l-10.478,-12.038l9.831,6.179l13.204,-7.733l-19.554,-23.969l6.998,-29.37l-11.39,-13.434c-4.26,0.918 -8.68,1.401 -13.212,1.401c-4.61,-0 -9.103,-0.5 -13.43,-1.448l12.66,12.681l-12.769,12.928l20.852,42.75l-34.876,29.41l26.345,-31.852l-19.643,-35.741l-15.953,10.607l-8.922,17.853l0.752,23.824l-6.586,-24.384l5.601,-19.336l32.366,-25.168l-11.299,-17.286c-16.646,-7.243 -29.537,-21.522 -34.906,-39.074c-0.056,-0.182 -0.927,-1.211 -0.927,-1.211l-30.093,-11.143l-9.035,41l7.564,33.914l-15.289,-30.77l7.09,-54.798l-11.824,-23.651l-17.418,-1.8l-51.105,33.618l11.682,31.88l-19.675,-33.127l46.963,-33.625l-10.026,-1.036l-44.943,21.274l-54.255,-27.878l49.356,17.763l29.15,-17.422l-26.494,-22.623l-50.556,1.275l58.96,-7.743l25.067,24.093l10.984,-6.817l47.044,7.304l24.206,38.515l20.873,6.384Zm31.557,-1.67c0,17.082 13.869,30.951 30.951,30.951c17.082,0 30.951,-13.869 30.951,-30.951c0,-17.082 -13.869,-30.951 -30.951,-30.951c-17.082,-0 -30.951,13.869 -30.951,30.951Z" style="fill:#36c9ff;"/></g></g><g><g><path d="M410.754,1220.583c-29.955,8.026 -73.668,-57.833 -97.555,-146.98c-23.887,-89.147 -18.96,-168.039 10.995,-176.066c29.955,-8.026 73.668,57.833 97.555,146.98c23.887,89.147 18.96,168.039 -10.995,176.066Z" style="fill:#e4e4e2;"/><path d="M381.825,1210.992c-3.534,0.947 -81.55,21.872 -86.149,15.509c-29.805,-41.236 -69.563,-226.086 -64.288,-276.508c0.81,-7.741 69.595,-26.643 73.111,-27.586c29.955,-8.026 71.599,50.112 92.938,129.749c21.339,79.637 14.343,150.809 -15.612,158.835Z" style="fill:#90939c;"/><path d="M230.863,936.315c13.264,-3.554 28.95,3.889 44.089,20.609c20.866,23.046 41.418,63.734 54.442,112.34c13.024,48.606 15.569,94.119 9.022,124.51c-4.75,22.049 -14.613,36.338 -27.877,39.892" style="fill:none;stroke:#c8d3d9;stroke-width:8.33px;stroke-linecap:round;stroke-miterlimit:2;"/><path d="M219.231,938.351c13.264,-3.554 28.95,3.889 44.089,20.609c20.866,23.046 41.418,63.734 54.442,112.34c13.024,48.606 15.569,94.119 9.022,124.51c-4.75,22.049 -14.613,36.338 -27.877,39.892" style="fill:none;stroke:#c8d3d9;stroke-width:8.33px;stroke-linecap:round;stroke-miterlimit:2;"/><path d="M242.948,933.077c13.264,-3.554 28.95,3.889 44.089,20.609c20.866,23.046 41.418,63.734 54.442,112.34c13.024,48.606 15.569,94.119 9.022,124.51c-4.75,22.049 -14.613,36.338 -27.877,39.892" style="fill:none;stroke:#c8d3d9;stroke-width:8.33px;stroke-linecap:round;stroke-miterlimit:2;"/><path d="M255.033,929.839c13.264,-3.554 28.95,3.889 44.089,20.609c20.866,23.046 41.418,63.734 54.442,112.34c13.024,48.606 15.569,94.119 9.022,124.51c-4.75,22.049 -14.613,36.338 -27.877,39.892" style="fill:none;stroke:#c8d3d9;stroke-width:8.33px;stroke-linecap:round;stroke-miterlimit:2;"/><path d="M267.118,926.601c13.264,-3.554 28.95,3.889 44.089,20.609c20.866,23.046 41.418,63.734 54.442,112.34c13.024,48.606 15.569,94.119 9.022,124.51c-4.75,22.049 -14.613,36.338 -27.877,39.892" style="fill:none;stroke:#c8d3d9;stroke-width:8.33px;stroke-linecap:round;stroke-miterlimit:2;"/><path d="M279.203,923.363c13.264,-3.554 28.95,3.889 44.089,20.609c20.866,23.046 41.418,63.734 54.442,112.34c13.024,48.606 15.569,94.119 9.022,124.51c-4.75,22.049 -14.613,36.338 -27.877,39.892" style="fill:none;stroke:#c8d3d9;stroke-width:8.33px;stroke-linecap:round;stroke-miterlimit:2;"/><path d="M291.289,920.124c13.264,-3.554 28.95,3.889 44.089,20.609c20.866,23.046 41.418,63.734 54.442,112.34c13.024,48.606 15.569,94.119 9.022,124.51c-4.75,22.049 -14.613,36.338 -27.877,39.892" style="fill:none;stroke:#c8d3d9;stroke-width:8.33px;stroke-linecap:round;stroke-miterlimit:2;"/><path d="M302.204,1249.669c-29.955,8.026 -73.668,-57.833 -97.555,-146.98c-23.887,-89.147 -18.96,-168.039 10.995,-176.066c29.955,-8.026 73.668,57.833 97.555,146.98c23.887,89.147 18.96,168.039 -10.995,176.066Z" style="fill:#e4e4e2;"/><path d="M270.248,1137.502c-6.807,1.824 -18.202,-18.598 -25.43,-45.576c-7.229,-26.978 -7.571,-50.361 -0.765,-52.185c6.807,-1.824 18.202,18.598 25.43,45.576c7.229,26.978 7.571,50.361 0.765,52.185Z" style="fill:#3e3e3e;"/></g><path d="M1016.34,1121.886c3.856,-0.289 6.36,1.777 6.8,2.14c0.899,0.742 1.679,1.67 2.222,2.702c0.004,0.008 1,3.424 0.999,3.428c-2.365,8.711 -4.424,15.467 -4.832,16.805c-0.075,0.245 -0.238,0.479 -0.225,0.734c0.001,0.017 1.267,4.676 2.718,10.685c0.066,0.273 0.164,0.54 0.197,0.819c0.087,0.731 0.109,7.607 0.111,8.268c0.251,76.952 -22.411,110.447 -68.537,110.341c-23.224,-0.054 -47.086,-8.076 -72.045,-12.596c-161.062,-29.165 -265.186,54.456 -339.497,8.554c-14.62,-9.031 -24.957,-21.032 -26.807,-23.18c-65.94,-76.555 -19.731,-211.69 -205.719,-321.748c-1.112,-0.658 -1.123,-0.638 -1.201,-0.709c-0.64,-0.576 -1.402,-1.041 -1.918,-1.73c-0.237,-0.316 -1.6,-2.133 -1.237,-4.773c0.055,-0.403 0.375,-2.725 2.576,-4.378c0.315,-0.237 2.132,-1.601 4.773,-1.237c0.853,0.118 1.651,0.501 2.443,0.838c0.454,0.193 6.677,3.999 7.254,4.352c190.28,116.371 137.584,260.507 210.611,329.296c13.231,12.463 24.172,16.848 25.63,17.481c68.095,29.567 172.719,-44.307 329.265,-14.123c36.512,7.04 78.402,23.558 101.988,-1.713c18.596,-19.925 21.307,-60.497 20.747,-92.599c-0.001,-0.035 2.176,-11.427 2.143,-11.554c-0.126,-0.49 -3.295,-7.774 -3.588,-8.448c-2.014,-4.627 -3.55,-7.972 -3.546,-7.995c0.158,-1.176 0.087,-2.407 0.477,-3.528c1.212,-3.484 4.125,-4.909 4.623,-5.153c1.685,-0.825 1.704,-0.839 3.577,-0.98Z" style="fill:#c8d3d9;"/></g><g><path d="M548.306,113.281c45.312,0 73.839,13.045 87.781,32.945c13.5,19.27 18.639,48.243 11.738,87.375l-61.366,348.024c-6.932,39.314 -22.009,67.331 -43.356,84.993c-21.367,17.68 -50.9,27.368 -89.111,27.368l-279.058,-0l16.633,-94.328l44.929,0l69.129,-392.049l-44.929,-0l16.633,-94.328l270.976,0Zm-0.917,94.328l-136.743,-0l-69.129,392.049l136.743,0l69.129,-392.049Z" style="fill:#3e3e3e;"/><path d="M652.966,693.987c-34.088,-0 -55.747,-10.612 -67.014,-26.319c-11.026,-15.372 -15.531,-36.575 -10.687,-64.049l40.491,-229.639c4.213,-23.895 13.472,-43.003 27.104,-57.639c14.205,-15.251 38.122,-24.77 72.981,-24.77l131.935,0c37.242,0 59.411,12.021 69.351,28.61c9.39,15.672 12.861,36.17 8.35,61.757l-40.491,229.639c-4.501,25.524 -14.853,45.194 -30.134,59.475c-15.485,14.473 -38.542,22.933 -69.951,22.933l-131.935,-0Zm27.304,-94.328l102.511,0l37.691,-213.758l-102.511,-0l-37.691,213.758Z" style="fill:#3e3e3e;"/><path d="M1311.692,385.9l-25.524,0l16.633,-94.328l160.647,-0l-16.633,94.328l-37.892,-0l-122.075,308.087l-113.829,-0l-9.662,-224.317l-89.804,224.317l-117.35,-0l-1.902,-44.842l-0.003,-0.076c-0.56,-15.648 -1.323,-34.853 -2.289,-57.615c-0.969,-22.853 -1.96,-47.61 -2.972,-74.271c-1.009,-26.588 -1.997,-51.277 -2.964,-74.067c-0.953,-22.458 -2.018,-40.94 -3.24,-55.892l-0.056,-1.324l-36.012,0l16.633,-94.328l159.933,-0l-16.633,94.328l-26.594,0l5.974,127.611l87.023,-221.939l115.978,-0l10.211,225.009l52.401,-130.681Z" style="fill:#3e3e3e;"/><path d="M1726.939,284.44c27.153,0 45.662,8.537 56.876,21.94c11.195,13.38 16.356,33.109 11.637,59.87l-41.156,233.409l45.642,0l-16.633,94.328l-184.181,-0l16.633,-94.328l34.232,-0l35.004,-198.52l-105.943,59.912l-24.44,138.609l34.945,0l-16.633,94.328l-184.181,-0l16.633,-94.328l44.929,-0l37.817,-214.471l-44.929,0l16.507,-93.615l149.236,-0l-9.396,53.288l89.219,-50.336l0.009,-0.005c11.969,-6.738 24.698,-10.079 38.174,-10.079Z" style="fill:#3e3e3e;"/></g></svg>