<?xml version="1.0" encoding="UTF-8" standalone="no"?><!DOCTYPE svg PUBLIC "-//W3C//DTD SVG 1.1//EN" "http://www.w3.org/Graphics/SVG/1.1/DTD/svg11.dtd"><svg width="100%" height="100%" viewBox="0 0 6000 2400" version="1.1" xmlns="http://www.w3.org/2000/svg" xmlns:xlink="http://www.w3.org/1999/xlink" xml:space="preserve" xmlns:serif="http://www.serif.com/" style="fill-rule:evenodd;clip-rule:evenodd;stroke-linejoin:round;stroke-miterlimit:1.5;"><g id="_-To-The-" serif:id="&quot;To The&quot;"><g><path d="M2622.041,1163.774c-38.784,-4.85 -78.163,-9.333 -114.901,-11.69c-11.745,-0.754 -71.044,-6.689 -113.902,1.544c-23.627,4.539 -32.384,11.34 -36.849,14.333c-23.659,15.859 -46.036,33.053 -66.709,48.836c-16.12,12.307 -50.231,39.896 -86.771,61.486c-43.562,25.739 -75.854,34.816 -101.747,41.605c-280.994,73.674 -913.187,74.242 -1378.656,56.647c-1.978,-0.075 -242.19,-8.699 -398.277,-23.45c-75.697,-7.154 -82.233,-11.234 -87.026,-13.298c-49.258,-21.224 -70.184,-59.291 -63.551,-90.708c4.632,-21.941 22.695,-42.83 58.409,-51.129c1.712,-0.398 12.576,-4.178 54.159,-7.856c62.593,-5.536 120.921,-4.243 126.517,-4.159l0.002,18.237c-0.399,0.008 -69.185,0.704 -135.164,9.775c-33.794,4.646 -39.889,7.823 -41.875,8.638c-19.262,7.9 -30.889,20.503 -29.968,34.893c0.138,2.149 0.373,16.231 19.657,30.281c1.335,0.973 11.428,8.629 29.653,13.996c12.038,3.545 61.673,8.191 67.059,8.696c12.384,1.159 58.597,5.485 155.059,11.387c1.339,0.082 422.879,27.347 883.839,21.622c339.26,-4.214 605.502,-25.734 748.693,-67.459c59.262,-17.269 104.004,-50.716 152.231,-88.002c15.404,-11.909 44.796,-35.832 75.265,-56.589c35.643,-24.281 97.539,-27.774 171.875,-22.756c0.151,0.01 14.952,1.207 37.933,3.892c32.732,3.825 66.935,8.879 100.396,13.974c27.714,-29.842 67.019,-38.297 84.005,-41.163c1.812,-0.306 42.915,-10.013 93.143,-0.661c41.744,7.773 73.694,25.892 76.636,52.889c1.393,12.778 -3.48,31.747 -30.294,40.513c-36.65,11.981 -106.797,3.904 -200.65,-8.162c-2.835,-0.364 -5.681,-0.731 -8.536,-1.099c-28.47,52.102 -46.168,131.002 -47.909,136.984c-47.231,162.291 -69.2,375.842 -40.938,449.946c0.317,0.832 0.634,1.627 0.949,2.385c4.874,-11.435 10.854,-27.371 15.757,-40.051c3.244,-8.388 3.312,-8.358 4.947,-12.94c11.575,-32.446 26.357,-70.556 45.975,-105.796c6.31,-28.91 18.276,-57.217 35.045,-82.74c30.185,-45.943 86.364,-79.479 129.425,-100.674c0.369,-0.182 12.16,-5.863 29.14,-12.965c100.329,-41.963 214.519,-64.34 246.158,-64.642c0.261,-0.003 0.523,-0.001 0.785,-0.004l-0.287,58.332c-24.188,-0.228 -149.36,20.846 -252.685,67.023c-6.208,2.774 -27.066,11.414 -50.388,24.892c27.984,-3.061 55.598,2.878 81.444,13.981c103.449,44.438 114.401,152.975 86.611,224.132c-10.837,27.746 -24.677,42.921 -36.824,53.364c-55.203,47.459 -157.56,59.103 -222.634,-7.05c-9.12,-9.271 -15.008,-17.263 -20.369,-25.003c-15.822,-22.841 -25.184,-48.649 -28.814,-75.565c-7.183,16.035 -13.337,31.261 -18.242,43.725c-2.923,7.427 -14.496,42.945 -21.229,58.902c-4.746,11.248 -10.181,21.539 -20.716,23.292c-9.595,1.596 -15.568,-5.404 -15.692,-5.528c-11.233,-11.282 -32.601,-41.472 -34.9,-146.371c-2.273,-103.685 15.312,-241.561 43.841,-352.59c0.464,-1.807 6.158,-20.525 13.249,-40.763c4.138,-11.809 18.628,-53.128 38.648,-89.335Zm70.447,-30.374c67.559,10.212 127.47,18.238 159.53,13.23c11.801,-1.843 14.712,-4.771 15.015,-5.025c0.018,0.011 0.035,0.022 0.051,0.032c0.138,-0.419 0.333,-1.905 -2.758,-5.183c-12.084,-12.816 -51.648,-25.816 -97.764,-24.261c-12.662,0.427 -22.527,1.865 -28.78,2.983c-0.088,0.016 -9.351,1.898 -20.097,5.802c-10.276,3.733 -18.54,8.031 -25.196,12.421Zm-1.865,446.555c-22.099,49.101 -24.591,106.276 4.714,151.789c1.574,2.444 4.526,6.221 4.938,6.748c39.371,50.359 98.568,54.609 141.839,41.133c6.177,-1.924 43.118,-13.378 62.741,-44.232c28.04,-44.089 37.691,-137.704 -30.515,-187.134c-20.26,-14.682 -45.924,-24.111 -66.68,-26.953c-33.667,-4.608 -70.952,4.696 -108.533,48.479c-2.091,2.437 -4.964,5.736 -8.503,10.169Z" style="fill:#3e3e3e;"/><path d="M3348.72,1403.822c-33.56,-3.708 -57.123,-6.035 -81.196,-7.154c-49.635,-2.309 -73.319,-0.129 -95.407,0.564l-0.018,-58.333c20.403,0.571 49.97,-0.213 106.043,6.089c27.893,3.135 65.271,9.593 105.226,16.498c7.466,-6.82 13.675,-11.099 18.181,-14.05c65.633,-42.971 170.192,-40.314 218.071,-10.543c2.725,1.695 28.219,14.838 29.038,41.721c0.247,8.105 -2.289,23.971 -25.011,33.408c-38.956,16.181 -126.533,8.415 -228.331,-2.98c-1.44,-0.161 -2.865,-0.321 -4.274,-0.479c-21.171,30.087 -35.926,68.629 -43.158,88.995c-1.839,5.178 -35.216,83.383 -55.208,213.679c-18.241,118.88 -16.268,226.367 6.491,264.476c0.26,0.435 0.796,1.217 1.385,2.022c16.729,-12.959 57.245,-65.921 112.781,-154.092c13.697,-21.747 27.472,-44.327 40.925,-67.08c10.689,-82.893 35.211,-223.255 84.366,-278.601c6.585,-7.414 26.553,-28.571 56.156,-25.599c12.61,1.266 26.985,10.784 27.021,34.306c0.015,9.801 -2.385,20.78 -5.246,30.809c-0.124,0.434 -2.151,7.335 -6.278,18.177c-21.097,55.431 -69.161,141.65 -121.049,224.678c-3.325,23.075 -6.176,46.488 -8.516,69.739c-3.575,35.523 -4.981,65.44 -5.249,71.141c-0.475,10.114 -0.678,17.36 -0.743,19.593c-0,0.006 0.068,5.331 0.281,12.332c11.349,-40.166 23.554,-87.304 42.314,-127.514c0.002,-0.004 5.68,-10.76 13.522,-22.273c12.936,-18.99 42.866,-57.462 90.94,-54.76c4.439,0.25 29.486,2.148 49.772,17.013c32.391,23.735 31.981,63.661 29.482,89.44c-4.635,47.828 -23.392,102.754 -16.444,144.224c5.096,30.417 15.343,33.249 19.367,34.241c11.442,2.819 30.14,-3.681 49.169,-12.629c-0.196,-1.399 -0.378,-2.814 -0.548,-4.245c-1.198,-10.098 -1.508,-19.601 -1.433,-21.931c2.264,-70.439 36.486,-153.104 100.495,-169.438c54.972,-14.028 112.769,37.297 97.765,88.088c-8.555,28.959 -36.613,43.269 -43.521,47.137c-40.425,22.632 -76.113,45.06 -106.474,62.595c-1.4,0.808 -3.998,2.466 -7.481,4.661c1.484,11.257 4.503,23.54 10.449,33.289c7.366,12.078 18.6,19.415 39.451,12.998c5.591,-1.72 34.393,-12.049 66.416,-16.501c1.357,-0.189 2.971,-0.766 9.056,-2.083c77.244,-16.722 116.585,18.659 155.422,51.507c2.339,1.979 18.387,19.238 36.081,32.471c28.49,21.305 52.233,26.082 70.227,30.026c54.844,12.023 155.767,29.318 333.029,38.186c120.292,6.018 284.51,8.681 527.091,2.559c230.321,-5.813 433.147,-16.791 541.509,-16.548c31.161,0.07 79.293,3.375 118.143,-1.589c56.584,-7.229 89.321,-30.503 95.803,-87.313c0.653,-5.72 2.107,-21.819 0.235,-37.666c-12.177,-103.051 -146.923,-150.312 -195.873,-87.743c-16.976,21.699 -17.946,49.138 -18.265,58.54l-12.042,-0.008c-0.16,-10.927 -1.614,-60.09 38.848,-88.327c70.586,-49.261 210.44,7.927 218.236,129.566c0.122,1.898 0.974,17.784 -1.344,35.796c-11.651,90.554 -85.115,108.409 -138.042,113.638c-33.314,3.291 -65.549,2.236 -104.722,2.665c-31.104,0.34 -62.635,0.744 -186.56,6.416c-185.056,8.469 -437.459,21.868 -676.769,21.582c-264.638,-0.316 -415.842,-16.579 -511.307,-33.662c-18.46,-3.303 -47.051,-8.952 -60.655,-12.761c-51.566,-14.441 -83.215,-45.291 -106.985,-68.924c-3.353,-3.334 -3.188,-3.483 -6.257,-7.081c-29.12,-34.134 -52.665,-60.654 -114.118,-57.067c-5.613,0.328 -6.18,0.453 -6.705,0.569c-29.942,6.625 -56.274,18.727 -62.281,21.014c-41.421,15.769 -76.264,-5.221 -91.208,-54.238c-7.69,3.985 -15.696,7.699 -23.316,10.446c-13.329,4.805 -43.13,13.658 -64.57,-10.536c-2.932,-3.309 -13.292,-15.094 -19.374,-44.151c-11.515,-55.015 11.686,-126.128 6.976,-170.5c-2.301,-21.678 -10.421,-27.862 -19.754,-31.347c-4.201,-1.569 -14.005,-4.045 -21.974,-3.109c-10.234,1.203 -28.358,7.77 -49.458,52.043c-0.997,2.092 -2.361,4.12 -6.279,11.746c-27.831,54.167 -47.873,129.703 -68.157,165.937c-2.55,4.556 -9.487,16.518 -22.811,17.746c-7.551,0.696 -20.191,-2.338 -25.683,-19.473c-1.673,-5.219 -6.731,-22.063 -2.996,-84.534c0.328,-5.483 0.231,-36.023 5.368,-95.023c-33.939,51.183 -66.852,97.148 -92.402,128.59c-34.1,41.963 -46.152,47.455 -54.088,48.124c-8.514,0.718 -12.866,-4.956 -13.765,-5.949c-0.772,-0.853 -4.009,-4.428 -8.358,-11.697c-36.446,-60.92 -31.492,-234.623 -2.131,-379.835c12.129,-59.986 25.382,-100.51 32.692,-121.205c0.007,-0.02 7.968,-20.98 19.455,-44.049c7.062,-14.183 13.956,-26.22 20.555,-36.461Zm83.754,-33.961c66.091,10.981 131.642,20.1 167.528,15.228c13.839,-1.879 17.43,-5.15 18.18,-5.694l0.123,0.054c0.115,-0.098 0.25,-0.273 0.147,-1.889c-0.452,-7.089 -7.769,-13.068 -12.686,-16.366c-0.128,-0.086 -5.809,-3.753 -16.567,-7.305c-41.071,-13.562 -109.63,-10.877 -156.724,15.971Zm73.964,294.391c34.376,-63.934 61.418,-121.734 71.299,-157.198c0.198,-0.71 2.197,-7.134 3.341,-13.399c-5.293,2.492 -12.491,8.137 -21.178,20.674c-21.125,30.488 -39.288,85.25 -53.463,149.923Zm284.236,316.639c12.767,-8.012 47.213,-30.208 53.33,-34.118c50.158,-32.058 52.255,-31.666 60.684,-38.355c31.03,-24.627 14.993,-51.289 -2.549,-63.255c-3.523,-2.403 -21.475,-14.302 -43.041,-7.417c-43.539,13.9 -68.473,80.075 -68.197,138.289c0.001,0.174 -0.134,1.943 -0.227,4.855Z" style="fill:#d83339;"/><path d="M3080.849,1367.503l91.268,0.562" style="fill:#302d2e;stroke:#e58d1f;stroke-width:40.16px;"/></g></g><g id="Wire"><path d="M4724.164,1597.594l-42.345,-0l10.604,545.6l-143.859,0l-140.417,-419.258l7.436,419.258l-143.846,0l-181.804,-545.6l-41.11,0l-17.674,-100.233l178.54,-0l17.674,100.233l-27.585,-0l104.553,315.822l-9.306,-416.055l148.8,-0l137.423,416.074l-6.823,-315.841l-28.802,0l-17.674,-100.233l178.54,-0l17.674,100.233Z" style="fill:#d83339;"/><path d="M4961.094,2042.961l52,-0l17.674,100.233l-214.54,0l-17.674,-100.233l50.4,-0l-43.265,-245.367l-50.4,0l-17.674,-100.233l162.54,0l60.939,345.6Z" style="fill:#d83339;"/><path d="M5199.326,1697.361c27.091,0 48.36,7.404 64.264,20.776c15.887,13.358 26.856,33.045 31.567,59.761l17.297,98.096l-111.34,-0l-10.709,-60.735l-69.502,49.665l31.393,178.037l39.2,-0l17.674,100.233l-200.94,0l-17.674,-100.233l50.4,-0l-43.406,-246.167l-50.4,0l-17.674,-100.233l161.74,-0l9.49,53.82l58.052,-40.851l0.008,-0.006c11.268,-7.915 24.731,-12.164 40.562,-12.164Z" style="fill:#d83339;"/><path d="M5252.981,1802.658c-6.169,-34.985 0.239,-60.87 15.355,-78.363c14.924,-17.271 39.71,-27.734 75.649,-27.734l135.2,0c32.287,0 56.52,7.259 73.224,19.779c17.16,12.861 30.211,35.835 36.299,70.358l15.634,88.667l-202.609,144l4.161,23.596l118.26,0l-8.182,-46.4l109.74,-0l10.815,61.337c3.987,22.61 -0.104,41.915 -11.19,58.119c-11.23,16.415 -32.251,27.177 -65.081,27.177l-164,0c-30.076,0 -52.551,-8.584 -68.142,-23.622c-15.495,-14.945 -25.047,-32.862 -28.724,-53.715l-46.409,-263.2Zm128.529,102.016l104.427,-73.914l-5.848,-33.165l-117.46,-0l18.881,107.079Z" style="fill:#d83339;"/><g id="Spark"><circle cx="4829.617" cy="1614.609" r="35.997" style="fill:#fff;"/><path id="Spark1" serif:id="Spark" d="M4760.491,1616.412c-0.016,-0.613 -0.024,-1.228 -0.024,-1.846c0,-1.107 2.311,-17.789 2.363,-18.883l-29.261,-6.474l-36.15,-66.717l-52.2,1.886l-6.333,26.897l-2.416,-32.784l-23.251,-11.334l-77.083,18.02l76.176,-29.079l40.469,18.099l58.31,-0l45.632,55.92l17.37,2.236c0,0 0.806,-0.045 0.978,-0.265c12.654,-16.212 32.377,-26.644 54.517,-26.644c38.149,0 69.122,30.973 69.122,69.122c0,29.386 -18.377,54.514 -44.256,64.507l13.153,22.668l2.154,40.403l19.052,38.281l-23.987,42.491l52.977,59.274l-65.389,-56.44l21.757,-43.334l-0.432,-11.205l-18.537,6.89l-11.883,-13.652l11.149,7.008l14.974,-8.769l-22.176,-27.183l7.936,-33.308l-11.009,-20.057c-4.709,1.014 -9.595,1.549 -14.605,1.549c-5.096,-0 -10.063,-0.553 -14.846,-1.601l11.686,19.202l-14.481,14.662l23.648,48.482l-39.552,33.353l29.878,-36.123l-22.277,-40.533l-18.092,12.029l-10.118,20.247l0.853,27.019l-7.469,-27.654l6.352,-21.929l36.706,-28.543l-9.814,-24.319c-18.402,-8.007 -32.651,-23.792 -38.586,-43.193c-0.061,-0.201 -1.025,-1.339 -1.025,-1.339l-38.154,-9.077l-10.246,46.497l8.578,38.462l-17.34,-34.896l8.041,-62.145l-13.409,-26.822l-19.753,-2.042l-57.958,38.125l13.248,36.154l-22.313,-37.569l53.26,-38.133l-11.371,-1.175l-50.969,24.127l-61.53,-31.616l55.974,20.144l33.058,-19.758l-30.046,-25.657l-57.335,1.446l66.866,-8.781l28.429,27.324l12.457,-7.731l53.352,8.283l27.452,43.679l27.75,4.121Zm34.884,-1.846c0,18.883 15.331,34.214 34.214,34.214c18.883,0 34.214,-15.331 34.214,-34.214c0,-18.883 -15.331,-34.214 -34.214,-34.214c-18.883,0 -34.214,15.331 -34.214,34.214Z" style="fill:#36c9ff;"/></g></g><g id="Iron"><path d="M3184.086,1349.966l-67.909,17.947c-1.85,0.489 -3.92,-0.352 -5.133,-2.086c-1.213,-1.733 -1.293,-3.967 -0.199,-5.537l40.142,-57.64l233.751,-163.519l-5.83,-8.334c-4.169,-5.959 -3.231,-13.81 2.095,-17.535l69.566,-48.664l59.855,85.563l-69.566,48.664c-5.326,3.725 -13.022,1.915 -17.191,-4.044l-5.83,-8.334l-233.751,163.519Z" style="fill:#90939c;"/><path d="M3565.867,1170.176c0,0 0.707,7.024 -2.778,9.462l-15.207,10.638c-3.484,2.437 -8.52,1.253 -11.248,-2.646l-112.277,-160.501c-2.727,-3.899 -2.114,-9.036 1.371,-11.473l15.207,-10.638c3.484,-2.437 9.841,0.635 9.841,0.635l216.543,-131.878l-3.71,-5.304c-2.434,-3.479 -1.886,-8.062 1.223,-10.237l16.566,-11.589c3.109,-2.175 7.602,-1.118 10.036,2.361l104.097,148.807c2.434,3.479 1.886,8.062 -1.223,10.237l-16.566,11.589c-3.109,2.175 -7.602,1.118 -10.036,-2.361l-3.71,-5.304l-198.129,158.202Z" style="fill:#3e3e3e;"/><path d="M5043.708,711.765l-4.997,-2.224c10.221,-25.87 24.263,-64.33 17.86,-89.344c-6.789,-26.521 -35.494,-34.267 -77.639,-52.284c-13.624,-5.824 -33.212,-14.648 -53.699,-27.165c-60.26,-36.818 -112.115,-154.748 -178.711,-207.483c-35.408,-28.039 -66.842,-31.12 -102.248,-13.072c-0.176,0.09 -0.174,0.091 -2.193,1.14l-24.874,-52.764c18.593,-7.837 63.611,-25.27 114.98,-1.851c83.179,37.921 128.044,157.628 178.698,223.599c16.702,21.752 27.167,28.605 34.668,33.763c58.212,40.038 110.375,47.583 122.084,87.539c3.201,10.924 3.01,23.371 -0.116,37.811c-5.262,24.304 -18.331,51.048 -23.813,62.335Z" style="fill:#3e3e3e;"/><path d="M3696.876,838.805c-2.26,1.494 -3.821,3.838 -4.328,6.499c-0.507,2.661 0.083,5.415 1.636,7.635c19.161,27.391 79.433,113.55 98.595,140.941c1.553,2.22 3.937,3.718 6.611,4.155c2.674,0.436 5.411,-0.226 7.589,-1.837c81.131,-60 733.007,-542.097 853.817,-631.442c10.698,-7.912 13.146,-22.906 5.519,-33.809c-14.063,-20.103 -35.817,-51.2 -49.879,-71.303c-7.627,-10.903 -22.552,-13.745 -33.652,-6.408c-125.35,82.854 -801.728,529.928 -885.908,585.569Z" style="fill:#49c8f4;"/><path d="M3080.457,909.476c-3.918,-35.901 23.46,-66.554 69.454,-56.008c15.258,3.499 34.85,10.194 51.672,26.413c18.598,17.931 24.625,38.862 27.029,49.023c3.809,16.102 4.101,31.461 3.972,41.935c-0.059,4.808 -0.812,15.461 -0.918,20.777c-0.004,0.21 -0.127,6.534 -1.705,14.428c-3.499,17.515 -11.215,29.129 -14.81,34.319c-6.468,9.338 -13.354,16.507 -16.093,19.452c-1.753,1.885 -4.192,4.483 -6.509,7.05c-1.935,2.143 -10.111,9.798 -15.007,19.15c-0.596,1.139 -2.892,4.85 -5.391,12.946c-0.251,0.815 -1.406,4.556 -2.322,10.402c-1.349,8.607 -0.554,15.774 0.465,22.944c1.434,10.089 4.268,19.332 6.24,26.78c5.923,22.375 14.015,48.802 5.502,76.048c-2.321,7.43 -5.339,13.794 -5.89,14.956c-14.768,31.149 -34.164,32.342 -42.11,41.6c-5.274,6.145 -6.416,15.678 -7.972,26.511c-5.963,41.515 1.751,49.559 1.837,49.667c-0.127,-0.097 -10.082,-6.515 -14.232,-51.031c-0.003,-0.028 -0.713,-8.008 -0.772,-12.631c-0.386,-30.14 17.248,-34.991 26.43,-48.034c2.198,-3.122 6.885,-10.475 8.661,-27.568c1.752,-16.861 -8.367,-33.969 -18.615,-53.517c-0.293,-0.558 -10.151,-19.76 -14.223,-34.112c-1.707,-6.016 -6.485,-23.935 -4.516,-44.054c0.137,-1.402 0.875,-8.937 2.984,-17.358c1.749,-6.982 4.502,-13.639 4.98,-14.793c1.959,-4.737 7.437,-17.624 22.079,-33.95c4.922,-5.488 7.332,-7.764 8.007,-8.402c4.096,-3.869 8.351,-7.675 12.033,-11.203c1.698,-1.626 7.493,-6.612 12.035,-13.191c4.482,-6.491 5.246,-12.853 5.613,-14.715c1.186,-6.023 4.244,-19.101 5.597,-28.063c1.13,-7.482 3.079,-23.169 -1.687,-38.645c-2.984,-9.689 -9.394,-21.882 -26.25,-33.568c-3.693,-2.56 -13.916,-9.002 -23.161,-11.757c-27.018,-8.049 -43.626,9.851 -49.563,26.517c-1.961,5.506 -2.518,9.53 -2.845,11.681Z" style="fill:#e5e4e0;"/></g><g id="Solder"><path d="M1872.594,1373.37c61.237,16.408 70.988,178.881 21.762,362.594c-49.226,183.713 -138.907,319.543 -200.144,303.134c-61.237,-16.408 -70.988,-178.881 -21.762,-362.594c49.226,-183.713 138.907,-319.543 200.144,-303.134Z" style="fill:#e5e4e0;"/><path d="M1913.935,1420.185c7.225,1.936 166.731,44.634 168.338,60.716c10.415,104.228 -108.947,475.134 -170.026,559.764c-9.377,12.993 -150.476,-23.843 -157.665,-25.769c-61.237,-16.408 -75.251,-162.97 -31.277,-327.086c43.975,-164.115 129.393,-284.034 190.629,-267.626Z" style="fill:#92939c;"/><path d="M1899.14,2065.63c-27.116,-7.266 -47.23,-36.656 -56.855,-82.05c-13.267,-62.569 -7.873,-156.322 18.967,-256.488c26.839,-100.166 69.045,-184.055 111.818,-231.608c31.032,-34.5 63.147,-49.895 90.263,-42.629" style="fill:none;stroke:#cbd3d8;stroke-width:20.83px;stroke-linecap:round;stroke-miterlimit:2;"/><path d="M1921.809,2073.933c-27.116,-7.266 -47.23,-36.656 -56.855,-82.05c-13.267,-62.569 -7.873,-156.322 18.967,-256.488c26.839,-100.166 69.045,-184.055 111.818,-231.608c31.032,-34.5 63.147,-49.895 90.263,-42.629" style="fill:none;stroke:#cbd3d8;stroke-width:20.83px;stroke-linecap:round;stroke-miterlimit:2;"/><path d="M1874.434,2059.011c-27.116,-7.266 -47.23,-36.656 -56.855,-82.05c-13.267,-62.569 -7.873,-156.322 18.967,-256.488c26.839,-100.166 69.045,-184.055 111.818,-231.608c31.032,-34.5 63.147,-49.895 90.263,-42.629" style="fill:none;stroke:#cbd3d8;stroke-width:20.83px;stroke-linecap:round;stroke-miterlimit:2;"/><path d="M1849.729,2052.391c-27.116,-7.266 -47.23,-36.656 -56.855,-82.05c-13.267,-62.569 -7.873,-156.322 18.967,-256.488c26.839,-100.166 69.045,-184.055 111.818,-231.608c31.032,-34.5 63.147,-49.895 90.263,-42.629" style="fill:none;stroke:#cbd3d8;stroke-width:20.83px;stroke-linecap:round;stroke-miterlimit:2;"/><path d="M1825.024,2045.771c-27.116,-7.266 -47.23,-36.656 -56.855,-82.05c-13.267,-62.569 -7.873,-156.322 18.967,-256.488c26.839,-100.166 69.045,-184.055 111.818,-231.608c31.032,-34.5 63.147,-49.895 90.263,-42.629" style="fill:none;stroke:#cbd3d8;stroke-width:20.83px;stroke-linecap:round;stroke-miterlimit:2;"/><path d="M1800.318,2039.151c-27.116,-7.266 -47.23,-36.656 -56.855,-82.05c-13.267,-62.569 -7.873,-156.322 18.967,-256.488c26.839,-100.166 69.045,-184.055 111.818,-231.608c31.032,-34.5 63.147,-49.895 90.263,-42.629" style="fill:none;stroke:#cbd3d8;stroke-width:20.83px;stroke-linecap:round;stroke-miterlimit:2;"/><path d="M1775.613,2032.531c-27.116,-7.266 -47.23,-36.656 -56.855,-82.05c-13.267,-62.569 -7.873,-156.322 18.967,-256.488c26.839,-100.166 69.045,-184.055 111.818,-231.608c31.032,-34.5 63.147,-49.895 90.263,-42.629" style="fill:none;stroke:#cbd3d8;stroke-width:20.83px;stroke-linecap:round;stroke-miterlimit:2;"/><path d="M2094.5,1432.829c61.237,16.408 70.988,178.881 21.762,362.594c-49.226,183.713 -138.907,319.543 -200.144,303.134c-61.237,-16.408 -70.988,-178.881 -21.762,-362.594c49.226,-183.713 138.907,-319.543 200.144,-303.134Z" style="fill:#e5e4e0;"/><path d="M2035.927,1665.933c13.915,3.728 13.117,51.892 -1.78,107.488c-14.897,55.596 -38.288,97.705 -52.203,93.977c-13.915,-3.728 -13.117,-51.892 1.78,-107.488c14.897,-55.596 38.288,-97.705 52.203,-93.977Z" style="fill:#3e3e3e;"/><path d="M3143.538,1367.781l0.058,-0.001l0.001,0.089c-0.02,-0.029 -0.039,-0.059 -0.058,-0.088Zm-0.091,0.001c-0.092,0.091 -0.307,0.22 -0.686,2.418c-0.651,3.77 -1.509,12.286 -2.567,21.619c-0.066,0.586 -0.189,1.169 -0.201,1.759c-0.032,1.571 2.371,32.551 0.739,65.959c-0.099,2.025 0.105,3.255 0.176,11.012c0.111,12.16 -0.055,30.132 -5.054,62.065c-9.08,57.999 -29.697,120.983 -61.225,183.235c-6.495,12.825 -24.281,47.173 -51.544,85.395c-12.786,17.926 -34.007,46.054 -64.481,76.584c-134.603,134.846 -316.963,180.391 -488.862,9.697c-15.57,-15.461 -45.429,-42.355 -89.343,-44.383c-110.115,-5.086 -230.422,147.189 -336.302,228.609c-50.036,38.477 -108.631,70.856 -162.524,40.604c-27.386,-15.373 -45.596,-42.728 -56.691,-62.399c-0.379,-0.672 -2.557,-4.533 -1.144,-9.582c0.434,-1.552 1.171,-3.055 2.164,-4.324c3.264,-4.174 7.748,-4.705 8.525,-4.797c5.097,-0.603 8.545,2.091 9.144,2.559c2.684,2.097 2.442,2.344 4.136,5.301c34.139,59.598 69.875,65.738 103.604,56.157c88.573,-25.162 199.01,-171.005 311.031,-240.281c64.011,-39.586 145.528,-65.163 224.054,12.632c21.99,21.785 73.94,71.638 146.153,93.729c132.835,40.635 256.723,-35.715 344.22,-140.179c3.569,-4.261 31.667,-36.997 60.639,-84.368c18.092,-29.582 43.865,-75.842 64.332,-135.344c24.826,-72.176 25.65,-118.951 25.88,-125.628c0.243,-7.073 0.216,-12.964 0.209,-14.677c-0.003,-0.886 -1.029,-11.801 -3.105,-25.82c-2.459,-16.61 -5.403,-31.2 -6.929,-38.692c-0.258,-1.265 -8.414,-20.142 -9.855,-26.142c-0.344,-1.433 -0.462,-2.599 -0.453,-2.639c0.468,-2.335 0.51,-4.802 1.425,-7c0.888,-2.132 2.246,-4.108 3.879,-5.741c1.633,-1.633 3.609,-2.991 5.741,-3.879c0.529,-0.22 4.606,-1.917 7.02,-1.424c2.319,0.474 4.773,0.511 6.957,1.425c4.354,1.821 5.419,3.419 5.726,3.879c3.847,5.77 1.518,6.938 5.304,12.663l-0.091,0.001Z" style="fill:#cbd3d8;"/></g><g id="Down"><path d="M723.675,626.792c47.95,0 78.205,13.625 92.959,34.684c14.312,20.429 19.649,51.16 12.334,92.645l-65.97,374.133c-7.366,41.775 -23.328,71.575 -46.011,90.344c-22.704,18.785 -54.099,29.027 -94.7,29.027l-297.944,-0l17.274,-97.967l48.3,0l74.921,-424.9l-48.3,-0l17.274,-97.967l289.863,0Zm1.063,97.967l-150.493,-0l-74.921,424.9l150.493,-0l74.921,-424.9Z" style="fill:#3e3e3e;"/><path d="M836.187,1247.625c-35.906,-0 -58.777,-11.031 -70.645,-27.576c-11.627,-16.21 -16.301,-38.582 -11.192,-67.553l43.529,-246.867c4.465,-25.322 14.256,-45.58 28.702,-61.09c15.019,-16.124 40.342,-26.081 77.198,-26.081l141.833,0c39.201,0 62.616,12.459 73.079,29.921c9.914,16.546 13.521,38.195 8.758,65.208l-43.529,246.867c-4.765,27.022 -15.698,47.86 -31.875,62.98c-16.382,15.311 -40.797,24.191 -74.025,24.191l-141.833,-0Zm27.304,-97.967l113.693,0l41.125,-233.233l-113.693,0l-41.125,233.233Z" style="fill:#3e3e3e;"/><path d="M1296.79,818.458l-17.274,97.967l-28.948,0l6.883,147.032l96.065,-244.999l121.863,-0l11.263,248.176l60.232,-150.209l-27.931,-0l17.274,-97.967l169.207,-0l-17.274,97.967l-40.46,0l-131.233,331.2l-119.554,-0l-10.66,-247.484l-99.079,247.484l-123.342,-0l-1.975,-46.554l-0.003,-0.076c-0.602,-16.826 -1.423,-37.475 -2.461,-61.948c-1.042,-24.565 -2.107,-51.177 -3.195,-79.835c-1.085,-28.586 -2.147,-55.129 -3.187,-79.631c-1.025,-24.17 -2.172,-44.061 -3.485,-60.118l-0.129,-3.036l-38.313,-0l17.274,-97.967l168.44,-0Z" style="fill:#3e3e3e;"/><path d="M1990.731,810.792c28.544,0 48.036,8.881 59.824,22.97c11.769,14.067 17.096,34.826 12.135,62.96l-44.6,252.937l49.067,0l-17.274,97.967l-194.507,-0l17.274,-97.967l36.8,-0l38.514,-218.423l-117.77,66.599l-26.771,151.824l37.567,0l-17.274,97.967l-194.507,-0l17.274,-97.967l48.3,0l41.261,-234l-48.3,-0l17.139,-97.2l156.94,-0l-10.377,58.852l99.081,-55.9l0.009,-0.005c12.602,-7.094 26.005,-10.614 40.194,-10.614Z" style="fill:#3e3e3e;"/></g></svg>